<mxfile host="app.diagrams.net" modified="2023-08-12T02:38:16.403Z" agent="Mozilla/5.0 (Windows NT 10.0; Win64; x64) AppleWebKit/537.36 (KHTML, like Gecko) Chrome/115.0.0.0 Safari/537.36" version="21.6.7" etag="_6fJeqVDa7Z6HOstlb2i" type="github">
  <diagram name="Page-1" id="f14dbdjb65trUlcQhytT">
    <mxGraphModel>
      <root>
        <mxCell id="0" />
        <mxCell id="1" parent="0" />
      </root>
    </mxGraphModel>
  </diagram>
</mxfile>
